<svg xmlns="http://www.w3.org/2000/svg" xml:space="preserve" width="2000" height="110" data-id="lg_DYfG4h9JUpxKzE9mvm" data-version="1" viewBox="0 0 2000 110"><g data-padding="20"><g transform="translate(10 1.96)scale(.96435)"><rect width="560" height="110.196" x="345.475" y="-398.718" fill="none" rx="0" ry="0" transform="translate(400.5 398.62)"/><path fill="#2d2d2d" d="m768.035 29.4 3.76 16.81q4.33-.67 7.45-1.22t5.91-1.14q2.78-.6 6.16-1.26 1.05 1.57 1.5 3.57t.45 3.95q0 3.05-.8 5.69-.81 2.64-1.62 3.55-.86.14-1.74.19t-1.79.05q-3.76 0-7.52-1.08-3.76-1.07-7.14-2.97l-.24.24q1.76 4.95 3.02 10.02t.74 10.59q-.24 3.05-2.83 5.36-2.6 2.31-6.05 3.57t-6.31 1.26q-3 0-5.59-1.54-2.6-1.55-4.53-3.72-1.93-2.16-2.88-3.97l3.1-6.53h11.09q-3.76-11.61-6.33-19.45-2.57-7.83-4.17-12.69l-2.45-7.47q-.86-2.62-1.21-3.76-.36-1.15-.43-1.58-.07-.42-.12-.95 0-2.95 1.4-6.66 1.41-3.72 3.64-6l21.38 4.47 16.86-4.86q2.29 1.19 3.38 4.12 1.1 2.93 1.1 6.31 0 3.62-1.24 7.05t-3.67 5.09q-5.43-.8-11.09-2.14-5.67-1.33-11.19-2.9m73.23 57.23q-2.19.05-4.76-1.31-2.57-1.35-4.52-3.45-.91-.95-1.81-2.24-.91-1.28-.57-4.47.38-3.62.76-6.62t.85-6.19l-.71-.34q-1 2.53-2.4 5.91-1.41 3.38-3.1 6.86-1.69 3.47-3.45 6.33t-3.43 4.33q-1.33 1.05-2.67 1.14-1.28.05-2.57-.66-1.28-.72-2.71-1.72-1.14-.85-2.62-1.62-1.48-.76-2.57-1.71-1.1-.95-1.14-2.19 0-1 .09-3.67.1-2.66.05-4.57-.05-3.76-.48-8.73-.43-4.98-1.19-9.96-.76-4.97-1.95-8.69-.57-1.95-.57-2.62 0-.95 1.19-2.61 2.9-3.77 6.59-5.77t6.72-2.81q3.02-.8 3.93-.9 3.8 2.62 6.69 6.52 2.88 3.91 5.02 7.57-.05-4.23-.22-7.4-.16-3.17-.16-4.31.76-.52 3-.93 2.24-.4 5-.4 8.33 0 13.19 5.76.09.9-.26 3.78-.36 2.89-1.1 6.93-.74 4.05-1.81 8.6-1.07 4.54-2.33 8.88-1.26 4.33-2.69 7.66l8.24-4.38 4.04 5.77q-1.62 3.8-3.74 7.02-2.11 3.21-4.59 5.19-2.48 1.97-5.24 2.02m-23.09-17.76 1.43.67q1.33-1.29 2.85-3.6 1.53-2.31 3-4.9 1.48-2.6 2.67-4.88 1.19-2.29 1.76-3.53.1-.95.1-1v-2.81q-2.86-.71-5.38-1.19-2.53-.47-4.81-1l.04 5.1q.1 4.33-.35 8.57t-1.31 8.57m62.56 17.71q-4.29-.19-8.38-.92-4.1-.74-7.41-1.55t-5.26-1.1q-2.38-4.33-2.31-7.42.07-3.1 1.05-5.03.97-1.93 1.35-2.74 5.05.15 9.55 2.67t8.41 5.38l2.33-1.14q.24-1.38.31-3.14.07-1.77-.02-3.1-2.15-.62-5.24-1.76-3.05-1.14-6.5-2.69t-6.31-3.29-4.14-3.4q-.39-1.43-.6-3.74t-.31-4.81q-.09-2.5-.12-4.47-.02-1.98-.02-2.74 0-1.43 1.66-3.24 1.67-1.81 3.72-3.38t3.09-2.19q1.48-.91 3.72-1.93t4.57-1.79q2.33-.76 4.14-.76 2.1 0 4.83 1.53 2.74 1.52 4.84 2.38l7.66 2.57q1.24 4.33-.61 9.16-1.86 4.84-6 9.12-1.96-.81-4.41-2.64t-4.78-4.17q-2.34-2.33-3.96-4.52l-1.23.43-.43 8.86q1.66.85 4.62 2.61 2.95 1.77 6.26 3.91t6.12 4.33 4.19 3.91q.19 2.95-.24 6.14t-1.29 5.71q-2.76 2.72-5.9 5.05t-6.95 3.9m35.19 0q-3.52 0-7.19-1.02-3.66-1.02-5.47-3.07.67-3.86 1.17-6.33.5-2.48 1.02-4.31.52-1.84 1.14-3.74 0-.05.03-.05.02 0 .02-.05-.67-1.38-1.55-5.38t-1.81-9.47q-.93-5.48-1.78-11.41-.86-5.92-1.57-11.33-.72-5.4-1.12-9.24-.41-3.83-.41-4.97 0-.15.03-.24.02-.1.02-.14 2.19-2.81 6.38-4.93t8.48-2.12q2.09 0 4 .52 1.9.53 3.52 1.77-.19 12.04-1.5 24.59t-2.45 25.31l.62.14.19.05q2.42-7.81 4.45-15.62 2.02-7.81 5.16-15.38.77-.19 2.46-.5t3.74-.31q2.66 0 7.33 1.5 4.66 1.5 9.47 5.36 0 3.04-.59 7.31-.6 4.26-1.64 9.07-1.05 4.81-2.46 9.54-1.4 4.74-3.02 8.69l8.09-4.23 4.24 5.76q-1 3.04-3.05 6.35-2.04 3.31-4.66 5.6-2.62 2.28-5.38 2.28-2.24 0-4.76-1.26-2.53-1.26-4.29-3.12-3.09-3.23-2.9-7.09l1.19-26.24-1.29-.43q-2.33 5.1-4.64 9.96-2.31 4.85-5.03 10.09 1.2 3.48 2.34 7.33 1.14 3.86 1.66 8.67-1.57 1.14-3.71 1.62-2.14.47-4.48.47m55.48.01q-1.67 0-3.95-.97-2.29-.98-4.46-2.62-2.16-1.64-3.59-3.6-1.43-1.95-1.43-3.85 0-.67.1-1.15.09-.47.5-1.61.4-1.15 1.3-3.65.91-2.5 2.58-7.16l-6.24-24.81q1.43-1.76 3.88-3.33 2.45-1.58 5.43-2.58 2.97-1 5.93-1 2.19 0 4.19.65 2 .64 3.66 2.12-.14.71-.43 3.38-.28 2.66-.71 6.52t-.98 8.24q-.54 4.38-1.23 8.52-.7 4.14-1.46 7.29l-.9 3.71 7.14-3.19 3.76 5.95q-1 2.34-2.88 5.43-1.88 3.1-4.47 5.41-2.6 2.3-5.74 2.3m-2.05-60.33q-2.29-.14-4.5-1.26t-3.81-2.66q-1.59-1.55-2.02-2.98 1.38-3.38 2.24-5.55.85-2.16 1.54-4 .69-1.83 1.41-4.21 2.95 0 6.35.9 3.41.91 6.12 3.15 2.72 2.23 3.57 6.28-1.38 3.29-4.66 6.17-3.29 2.88-6.24 4.16m42.19 60.32q-2.38-.23-5.48-.92-3.09-.69-6.21-1.72-3.12-1.02-5.69-2.26t-3.86-2.52q-1.71-10.91-2.69-21.24t.5-20.19q1.05-1.33 3.76-2.86 2.72-1.52 6.1-2.93 3.38-1.4 6.47-2.4 3.1-1 4.91-1.24 4 .38 8.5 1.88t8.4 3.72q3.91 2.21 6 4.73.48 2.15.62 4.5.14 2.36.14 6.36 0 4.72-.57 10.24t-1.43 10.43q-.85 4.9-1.66 7.85-.91 1.05-3.34 2.58-2.42 1.52-4.47 2.57-3.05 1.52-5.36 2.35-2.31.84-4.64 1.07m1.05-11.42 2.61-1.81q.24-2.62.31-5.26.08-2.65.08-5.31 0-3.62-.19-7.38-.2-3.77-.62-7.86l-7.34-3-2.85 1.38q-.57 5.71-.57 11.48 0 3.52.16 7.11.17 3.6.5 7.22 1.48.95 3.45 1.93 1.98.97 4.46 1.5m40.33 11.42q-3.05 0-6.6-1.02t-5.35-3.07q.66-3.86 1.19-6.33.52-2.48 1.02-4.31.5-1.84 1.12-3.74-.72-1.67-1.64-5.14-.93-3.48-1.91-7.76-.98-4.29-1.81-8.43-.83-4.15-1.33-7.24-.5-3.1-.5-4.1 0-.09.02-.19.03-.09.03-.14 1.14-1.9 3.54-3.17 2.41-1.26 5.29-1.88t5.45-.62q2.24 0 4.02.39 1.79.38 2.89 1.38l-3.48 29.8.76.15q2.38-7.81 4.26-15.62t5.07-15.38q1.38-.43 3-.57 1.62-.15 3.34-.15 4.62 0 9.04 1.48 4.43 1.48 7.67 5.29 0 3.04-.59 7.31-.6 4.26-1.65 9.07t-2.45 9.54q-1.4 4.74-3.02 8.69l8.09-4.23 4.24 5.76q-1 3.04-3.05 6.35t-4.66 5.6q-2.62 2.28-5.39 2.28-2.23 0-4.76-1.26-2.52-1.26-4.28-3.12-1.67-1.76-2.34-3.28-.66-1.53-.57-3.81l1.19-26.24-1.38-.43q-2.33 5.1-4.62 9.96-2.28 4.85-4.95 10.09 1.19 3.48 2.17 7.31.97 3.83 1.83 8.69-1.62 1.14-3.86 1.62-2.23.47-5.04.47"/><path fill="#2d2d2d" d="M1101.255 106.49q-4.24-.81-6.69-3.17t-3.64-3.97q-.05-2.72.4-4.48t1.21-3.9l9.67 1.47q-.62-6.38-1.67-14.24-1.04-7.85-2.23-15.97t-2.29-15.5-1.79-12.98q-.69-5.59-.69-8.21.29-.67 1.31-2.64 1.03-1.98 3-4.55 1.98-2.57 5.1-5.12t7.64-4.4q5.81 1.33 9.93 1.93 4.12.59 7.93.21.66 1.33.54 3.55-.11 2.21-.81 4.69-.69 2.47-1.78 4.62-1.1 2.14-2.33 3.28-4.15-.28-6.41-1.31-2.26-1.02-3.5-2.43-1.24-1.4-2.24-2.78l.96 16.43 12.38-3.67q1.14 1.76 1.33 4.36.19 2.59-.24 5.28t-1.09 4.83q-.67 2.15-1.24 3-2.95.1-5.81-.97t-4.48-1.93q.48 8.57.84 17.43.35 8.85.5 16.76.14 7.9-.1 13.71-.43 2.72-2.69 5.1t-5.26 3.88-5.76 1.69m43.61-19.9q-2.19 0-4.38-1.19t-4.09-2.92q-1.91-1.74-3.33-3.41-.72-.81-1.15-2.02-.43-1.22-.04-3.26l3.28-17q-.86-4.48-1.67-9.84-.81-5.35-1.5-10.66t-1.21-9.79q-.52-4.47-.76-7.35t-.19-3.31q2.28-2.91 6.47-4.93 4.19-2.03 8.43-2.07 2.05-.05 3.95.47 1.91.53 3.43 1.77-.24 7.52-.78 15.8-.55 8.29-1.46 18.84-.9 10.54-2.33 24.97l6.81-3.19 3.81 6.05q-.91 2.76-2.91 5.78-2 3.03-4.69 5.15-2.69 2.11-5.69 2.11m56.62.04q-2.19.05-4.76-1.31-2.57-1.35-4.52-3.45-.91-.95-1.81-2.24-.91-1.28-.58-4.47.39-3.62.77-6.62t.85-6.19l-.71-.34q-1 2.53-2.41 5.91-1.4 3.38-3.09 6.86-1.69 3.47-3.45 6.33t-3.43 4.33q-1.33 1.05-2.67 1.14-1.28.05-2.57-.66-1.28-.72-2.71-1.72-1.15-.85-2.62-1.62-1.48-.76-2.57-1.71-1.1-.95-1.15-2.19 0-1 .1-3.67.09-2.66.05-4.57-.05-3.76-.48-8.73-.43-4.98-1.19-9.96-.76-4.97-1.95-8.69-.57-1.95-.57-2.62 0-.95 1.19-2.61 2.9-3.77 6.59-5.77t6.72-2.81q3.02-.8 3.92-.9 3.81 2.62 6.69 6.52 2.88 3.91 5.03 7.57-.05-4.23-.22-7.4-.16-3.17-.16-4.31.76-.52 3-.93 2.23-.4 5-.4 8.33 0 13.19 5.76.09.9-.27 3.78-.35 2.89-1.09 6.93-.74 4.05-1.81 8.6-1.07 4.54-2.33 8.88-1.27 4.33-2.69 7.66l8.23-4.38 4.05 5.77q-1.62 3.8-3.74 7.02-2.12 3.21-4.59 5.19-2.48 1.97-5.24 2.02m-23.09-17.76 1.42.67q1.34-1.29 2.86-3.6 1.53-2.31 3-4.9 1.48-2.6 2.67-4.88 1.19-2.29 1.76-3.53.1-.95.1-1v-2.81q-2.86-.71-5.39-1.19-2.52-.47-4.8-1l.04 5.1q.1 4.33-.35 8.57-.46 4.24-1.31 8.57m54.23 17.72q-2.28 0-4.47-.42-2.19-.43-3.72-1.86-.71-.67-2.07-2.5t-2.19-4.12-.02-4.29l3.81-9.42-8.53-28.95q1.91-2.77 5.24-4.17 3.33-1.41 6.9-1.41 3.91 0 6.91 1.48l-.33 28.67.52.09q.48-2.19 1.09-6.02.62-3.84 1.39-8.26.76-4.43 1.73-8.53.98-4.09 2.22-6.76 1.52-.38 3.02-.52 1.5-.15 2.88-.15 4.86-.04 8.57 1.31 3.72 1.36 5.67 2.69.67 4.72.31 9.91t-1.17 9.86q-.81 4.66-1.62 7.8-3.38 1.91-6.54 1.98-3.17.07-6.31-.69.04-1.48.04-4.05v-5.35q0-2.79-.04-4.79l-2.34-.38q-.95 2.81-2.14 7.02-1.19 4.22-2.4 8.88-1.22 4.67-2.36 8.96l8.71-1.15 2.72 6.38q-2.91 4.57-6.93 6.67-4.02 2.09-8.55 2.09m49.04-.01q-1.19 0-2.38-.61-1.19-.62-2.67-2.15-.48-.47-.93-.93-.45-.45-.93-.83-1-.9-1.81-1.52t-1.19-.95q-1.95-1.77-2.35-3.1-.41-1.33-.15-2.9.26-1.58.26-4.05 0-4.72-.45-9.79t-1.12-9.23q-.66-4.17-1.28-6.22-.57-1.95-.57-2.57 0-1.43 1.57-3.21 1.57-1.79 3.57-3.36t3.19-2.33q1.43-.91 3.64-1.96 2.22-1.04 4.55-1.81 2.33-.76 4.05-.76.66.05 1.57.34.9.28 2.14 1.09 3.81 2.52 6.21 3.81 2.41 1.29 4.36 2.02 1.95.74 4.29 1.6.71.28 1.04.76.34.48.67 2.67.38 2.33.24 5.04-.14 2.72-.95 4.29-.29.52-2.41 2.93-2.12 2.4-5.31 5.81-3.19 3.4-6.73 7-3.55 3.59-6.74 6.45h1.38q2.43-.48 6.66-2.81 4.24-2.33 8.86-4.52l4.05 6.62q-1.43 1.9-4.19 4.47t-6.24 5.02q-3.48 2.46-7.09 4.08-3.62 1.61-6.81 1.61m2.52-20.8q1.1-1.62 3.02-4.38 1.93-2.77 3.96-6.08 2.02-3.3 3.4-6.54-2.57-.57-9.24-2.72 0 1-.07 3.46-.07 2.45-.24 5.52-.16 3.07-.35 5.93-.19 2.85-.43 4.66 0 .05-.03.07-.02.03-.02.08"/></g><path fill="transparent" stroke="transparent" d="M719.5 0h561v110h-561z"/></g></svg>